<ttFont>
<head>
    <!-- Most of this table will be recalculated by the compiler -->
    <tableVersion value="1.0"/>
    <fontRevision value="1.002"/>
    <checkSumAdjustment value="0x3dc19696"/>
    <magicNumber value="0x5f0f3cf5"/>
    <flags value="00000000 00000011"/>
    <unitsPerEm value="1000"/>
    <created value="Mon Jun  2 16:14:54 2025"/>
    <modified value="Mon Jun  2 16:14:54 2025"/>
    <xMin value="0"/>
    <yMin value="-250"/>
    <xMax value="559"/>
    <yMax value="800"/>
    <macStyle value="00000000 00000000"/>
    <lowestRecPPEM value="6"/>
    <fontDirectionHint value="2"/>
    <indexToLocFormat value="0"/>
    <glyphDataFormat value="0"/>
  </head>
          <CharString index="0">
            60 hmoveto
            40 return
          </CharString>
          <CharString index="1">
            120 -50 -120 vlineto
            18 -4 -19 -89 12 -2 rlineto
            return
          </CharString>
          <CharString index="2">
            vlineto
            -144 64 -48 108 vhcurveto
            endchar
          </CharString>
          <CharString index="3">
            rmoveto
            40 60 -40 hlineto
            return
          </CharString>
          <CharString index="4">
            75 94 hvcurveto
            11 hlineto
            return
          </CharString>
          <CharString index="5">
            78 248 247 return
          </CharString>
          <CharString index="6">
            -94 callsubr
            36 vmoveto
            -94 -60 -102 callsubr
            60 -103 callsubr
            95 59 -75 -247 -248 -59 -78 -95 hvcurveto
            endchar
          </CharString>
          <CharString index="7">
            rmoveto
            -99 callsubr
          </CharString>
          <CharString index="8">
            40 hlineto
            33 164 rlineto
            206 hlineto
            33 -164 rlineto
            44 hlineto
            -145 700 rlineto
            -66 hlineto
            -65 -500 rmoveto
            92 461 rlineto
            8 hlineto
            92 -461 rlineto
            endchar
          </CharString>
          <CharString index="9">
            -106 callsubr
            169 95 rmoveto
            -106 callsubr
            endchar
          </CharString>
          <CharString index="10">
            232 -10 -95 callsubr
            return
          </CharString>
          <CharString index="11">
            -110 hlineto
            120 -40 rmoveto
            119 55 -95 -133 -133 -55 -94 -119 hvcurveto
            -80 455 hlineto
            endchar
          </CharString>
          <CharString index="12">
            rmoveto
            106 65 48 144 hvcurveto
            518 -40 -518 vlineto
            -122 -50 -34 -81 -81 -51 34 122 vhcurveto
            return
          </CharString>
          <CharString index="13">
            -11 hlineto
            -121 -75 -90 callsubr
            return
          </CharString>
          <CharString index="14">
            -104 callsubr
            80 -60 -104 callsubr
            return
          </CharString>
          <CharString index="15">
            -56 -176 14 hvcurveto
            39 5 rlineto
            191 -17 return
          </CharString>
          <CharString index="16">
            rmoveto
            150 8 rlineto
            32 vlineto
            -150 -10 rlineto
            return
          </CharString>
          <CharString index="17">
            -95 -263 -264 75 -98 121 hvcurveto
            return
          </CharString>
          <CharString index="18">
            60 360 rmoveto
            50 120 -50 hlineto
            return
          </CharString>
          <CharString index="19">
            240 36 -280 hlineto
            endchar
          </CharString>
        <CharString name=".notdef">
          92 50 -250 rmoveto
          400 1000 -400 -1000 hlineto
          50 50 rmoveto
          900 300 -900 -300 vlineto
          endchar
        </CharString>
        <CharString name="A">
          -12 20 hmoveto
          -99 callsubr
        </CharString>
        <CharString name="Aacute">
          -12 149 750 -91 callsubr
          -129 -780 -100 callsubr
        </CharString>
        <CharString name="Adieresis">
          -12 139 740 -93 callsubr
          -199 -800 -100 callsubr
        </CharString>
        <CharString name="B">
          35 60 hmoveto
          130 hlineto
          153 60 79 104 79 -39 70 -91 23 hvcurveto
          75 22 35 68 72 vvcurveto
          101 -42 82 -161 vhcurveto
          -120 hlineto
          130 -36 rmoveto
          120 34 -61 -86 -86 -49 -63 -105 hvcurveto
          -90 296 hlineto
          110 -331 rmoveto
          105 49 -64 -86 -90 -52 -57 -112 hvcurveto
          -100 297 hlineto
          endchar
        </CharString>
        <CharString name="C">
          91 410 264 rmoveto
          -179 -13 -57 -59 -83 hhcurveto
          -11 hlineto
          -94 -60 -102 callsubr
          60 -103 callsubr
          82 57 -92 callsubr
          -71 72 -104 hhcurveto
          -94 callsubr
          11 hlineto
          105 71 74 194 16 hvcurveto
          endchar
        </CharString>
        <CharString name="D">
          85 60 hmoveto
          147 hlineto
          138 98 88 264 263 -98 85 -138 hvcurveto
          -147 hlineto
          147 -36 rmoveto
          113 81 -65 -247 -248 -81 -68 -113 hvcurveto
          -107 628 hlineto
          endchar
        </CharString>
        <CharString name="E">
          -28 60 hmoveto
          280 36 -240 298 220 36 -220 294 -88 callsubr
        </CharString>
        <CharString name="F">
          -28 -107 callsubr
          314 220 36 -220 314 -88 callsubr
        </CharString>
        <CharString name="G">
          101 250 300 rmoveto
          159 -30 hlineto
          -188 -15 -56 -56 -81 hhcurveto
          -11 hlineto
          -94 -62 -102 callsubr
          71 -103 callsubr
          82 48 -92 callsubr
          -62 72 -104 hhcurveto
          -11 hlineto
          -121 -84 -90 callsubr
          11 hlineto
          79 52 42 112 24 hvcurveto
          6 -144 rlineto
          28 335 -196 hlineto
          endchar
        </CharString>
        <CharString name="H">
          52 -107 callsubr
          334 260 -334 40 700 -40 -330 -260 330 -40 hlineto
          endchar
        </CharString>
        <CharString name="I">
          -88 60 hmoveto
          200 36 -80 628 80 36 -200 -36 80 -628 -80 hlineto
          endchar
        </CharString>
        <CharString name="I.narrow">
          -248 -107 callsubr
          700 -40 hlineto
          endchar
        </CharString>
        <CharString name="IJ">
          55 100 320 rmoveto
          380 -40 -380 vlineto
          172 -330 -95 callsubr
          58 -40 -58 -105 callsubr
        </CharString>
        <CharString name="J">
          55 -97 callsubr
          98 -40 -98 -105 callsubr
        </CharString>
        <CharString name="J.narrow">
          -25 122 -10 rmoveto
          125 76 58 174 hvcurveto
          478 -40 -478 vlineto
          -154 -61 -42 -100 -18 -17 2 4 -15 vhcurveto
          -12 -35 rlineto
          -5 19 21 -2 22 hhcurveto
          endchar
        </CharString>
        <CharString name="K">
          19 -107 callsubr
          334 45 hlineto
          213 -334 rlineto
          49 hlineto
          -241 360 233 340 rlineto
          -46 hlineto
          -218 -330 rlineto
          -35 330 -40 hlineto
          endchar
        </CharString>
        <CharString name="L">
          -38 60 hmoveto
          280 36 -240 664 -40 hlineto
          endchar
        </CharString>
        <CharString name="M">
          122 -107 callsubr
          607 hlineto
          153 -308 rlineto
          25 hlineto
          152 312 rlineto
          -611 40 700 -40 vlineto
          -162 -340 -168 340 rlineto
          -40 hlineto
          endchar
        </CharString>
        <CharString name="N">
          52 60 hmoveto
          35 604 hlineto
          270 -604 rlineto
          35 700 -35 -604 hlineto
          -270 604 rlineto
          -35 hlineto
          endchar
        </CharString>
        <CharString name="O">
          95 246 -10 rmoveto
          11 hlineto
          120 76 98 264 263 -76 95 -120 hvcurveto
          -101 callsubr
        </CharString>
        <CharString name="P">
          35 -107 callsubr
          165 70 hlineto
          160 63 121 146 148 -63 120 -160 hvcurveto
          -96 callsubr
        </CharString>
        <CharString name="Q">
          95 246 -10 rmoveto
          84 -120 rlineto
          44 hlineto
          -85 123 rlineto
          101 17 63 102 240 vvcurveto
          263 -76 95 -120 vhcurveto
          -101 callsubr
        </CharString>
        <CharString name="R">
          46 -107 callsubr
          165 70 hlineto
          22 19 2 4 19 hvcurveto
          120 -171 rlineto
          44 hlineto
          -94 132 -17 24 -11 16 -10 9 rlinecurve
          93 38 38 99 114 vvcurveto
          148 -63 120 -160 vhcurveto
          -96 callsubr
        </CharString>
        <CharString name="S">
          -15 349 157 rmoveto
          -1 81 -49 55 -82 65 -50 40 rcurveline
          -62 49 -21 47 52 vvcurveto
          83 44 44 83 vhcurveto
          8 hlineto
          49 40 -9 -24 40 hvcurveto
          17 37 rlineto
          19 -37 -37 15 -62 hhcurveto
          -7 hlineto
          -118 -58 -66 -101 -81 44 -57 82 -65 hvcurveto
          50 -40 rlineto
          71 -57 18 -36 -64 vvcurveto
          -62 -44 -54 -83 vhcurveto
          -8 hlineto
          -53 -43 10 26 -43 hvcurveto
          -17 -37 rlineto
          -20 40 39 -17 67 hhcurveto
          7 hlineto
          118 59 72 95 -1 hvcurveto
          endchar
        </CharString>
        <CharString name="S.closed">
          -10 358 157 rmoveto
          -1 81 -46 62 -85 58 -58 40 rcurveline
          -66 45 -17 51 63 vvcurveto
          62 32 54 79 vhcurveto
          5 hlineto
          96 19 -59 -135 hvcurveto
          39 hlineto
          174 -39 58 -114 vhcurveto
          -7 hlineto
          -105 -44 -72 -95 1 hvcurveto
          1 -81 40 -64 85 -58 58 -40 rcurveline
          74 -51 15 -43 -63 vvcurveto
          -62 -37 -54 -71 vhcurveto
          -8 hlineto
          -104 -20 66 128 hvcurveto
          -40 hlineto
          -186 62 -46 92 vhcurveto
          7 hlineto
          105 53 72 95 -1 hvcurveto
          endchar
        </CharString>
        <CharString name="T">
          32 200 hmoveto
          40 664 170 36 -380 -36 170 hlineto
          endchar
        </CharString>
        <CharString name="U">
          55 -97 callsubr
          518 -40 -518 -105 callsubr
        </CharString>
        <CharString name="V">
          -8 65 700 rmoveto
          -45 hlineto
          135 -700 rlineto
          88 hlineto
          135 700 rlineto
          -41 hlineto
          -123 -661 rlineto
          -26 hlineto
          endchar
        </CharString>
        <CharString name="W">
          113 500 700 rmoveto
          -42 hlineto
          -84 -617 -91 617 rlineto
          -38 hlineto
          -91 -611 -89 611 rlineto
          -43 hlineto
          107 -700 rlineto
          45 hlineto
          84 604 90 -604 rlineto
          45 hlineto
          endchar
        </CharString>
        <CharString name="X">
          -8 20 hmoveto
          40 hlineto
          136 317 141 -317 rlineto
          45 hlineto
          -162 348 150 352 rlineto
          -40 hlineto
          -124 -320 -134 320 rlineto
          -45 hlineto
          154 -349 rlineto
          endchar
        </CharString>
        <CharString name="Y">
          12 67 700 rmoveto
          -47 hlineto
          170 -490 rlineto
          -210 40 210 vlineto
          170 490 rlineto
          -41 hlineto
          -140 -446 rlineto
          -5 hlineto
          endchar
        </CharString>
        <CharString name="Z">
          32 60 hmoveto
          320 36 -281 hlineto
          281 628 rlineto
          36 -320 -36 281 vlineto
          -281 -628 rlineto
          endchar
        </CharString>
        <CharString name="acute">
          -158 50 730 -91 callsubr
          endchar
        </CharString>
        <CharString name="arrowdown">
          -106 100 330 rmoveto
          52 -190 50 189 rlineto
          -35 hlineto
          5 211 rlineto
          -41 hlineto
          5 -210 rlineto
          endchar
        </CharString>
        <CharString name="arrowleft">
          161 195 408 rmoveto
          -190 -52 189 -50 rlineto
          35 vlineto
          365 -5 rlineto
          41 vlineto
          -364 -5 rlineto
          endchar
        </CharString>
        <CharString name="arrowright">
          36 249 308 rmoveto
          190 52 -189 50 rlineto
          -35 vlineto
          -240 5 rlineto
          -41 vlineto
          239 5 rlineto
          endchar
        </CharString>
        <CharString name="arrowup">
          -106 202 350 rmoveto
          -52 190 -50 -189 rlineto
          35 hlineto
          -5 -211 rlineto
          41 hlineto
          -5 210 rlineto
          endchar
        </CharString>
        <CharString name="colon">
          -238 -89 callsubr
          -480 vmoveto
          50 120 -50 hlineto
          endchar
        </CharString>
        <CharString name="comma">
          111 hmoveto
          -106 callsubr
          endchar
        </CharString>
        <CharString name="dieresis">
          -158 50 720 -93 callsubr
          endchar
        </CharString>
        <CharString name="dot">
          -268 50 730 -104 callsubr
          endchar
        </CharString>
        <CharString name="em">
          92 endchar
        </CharString>
        <CharString name="nlitest">
          342 750 vmoveto
          -750 50 vlineto
          endchar
        </CharString>
        <CharString name="period">
          -238 60 hmoveto
          50 120 -50 hlineto
          endchar
        </CharString>
        <CharString name="quotedblbase">
          -107 111 hmoveto
          -98 callsubr
        </CharString>
        <CharString name="quotedblleft">
          -107 60 607 rmoveto
          -120 50 120 vlineto
          -18 4 19 89 -12 2 rlineto
          91 -95 rmoveto
          -120 50 120 vlineto
          -18 4 19 89 -12 2 rlineto
          endchar
        </CharString>
        <CharString name="quotedblright">
          -107 111 580 rmoveto
          -98 callsubr
        </CharString>
        <CharString name="quotesinglbase">
          111 hmoveto
          -106 callsubr
          endchar
        </CharString>
        <CharString name="semicolon">
          -89 callsubr
          51 -480 rmoveto
          -106 callsubr
          endchar
        </CharString>
        <CharString name="space">
          -158 endchar
        </CharString>
        <CharString name="varcotest1">
          492 endchar
        </CharString>
        <CharString name="varcotest2">
          92 70 278 rmoveto
          239 102 70 284 -175 -76 -134 hlineto
          endchar
        </CharString>
</ttFont>
